<?xml version="1.0" encoding="utf-8"?>
<!-- Generator: Adobe Illustrator 16.0.0, SVG Export Plug-In . SVG Version: 6.00 Build 0)  -->
<!DOCTYPE svg PUBLIC "-//W3C//DTD SVG 1.1//EN" "http://www.w3.org/Graphics/SVG/1.1/DTD/svg11.dtd">
<svg version="1.1" id="Layer_1" xmlns="http://www.w3.org/2000/svg" xmlns:xlink="http://www.w3.org/1999/xlink" x="0px" y="0px"
	 width="590.667px" height="243.333px" viewBox="0 0 590.667 243.333" enable-background="new 0 0 590.667 243.333"
	 xml:space="preserve">
<g>
	<g id="XMLID_1_">
		<g>
			<path d="M571.65,127.954c-0.021,0.14-0.04,0.28-0.061,0.42c0-0.14,0-0.28,0.01-0.42
				C571.62,127.954,571.629,127.954,571.65,127.954z"/>
			<path d="M568.349,125.744c0.891,0.59,1.79,1.149,3.301,1.1c-0.03,0.33-0.04,0.7-0.051,1.11
				C569.74,127.984,568.83,127.093,568.349,125.744z"/>
			<path d="M571.589,128.374c-0.08,12.3,6.891,52.18-1.95,52.09C577.179,168.034,569.089,146.154,571.589,128.374z"/>
			<path d="M571.599,127.954c-0.01,0.14-0.01,0.28-0.01,0.42c-2.5,17.78,5.59,39.66-1.95,52.09c-0.08,0-0.17-0.01-0.25-0.01
				c-0.26-0.71-1.39-0.57-2.14-0.78c-0.37,0-0.73,0-1.1,0c-12.4-3.05-42.601-5.32-51.721,2.2c-0.37,0-0.729,0-1.1,0
				c-0.43,13.87,5.62,23.8,2.2,37.41c-8.16,5.42-19.24,7.91-31.91,8.81c-0.11-3.069,10.87-4.51,14.3-7.71
				c1.42-1.51,4.78-1.09,7.7-1.1c0-0.73,0-1.47,0-2.2c5.37-2.9,2.5-12.13,1.11-19.81c-2.551-26.86-8.221-52.841-6.61-78.131
				c0.74-9.55-16.8-10.329-28.61-11c-1.75,0.811,0.25,5.381-3.3,4.4c1.14,3.99,3.44,6.83,6.6,8.8c0.94-0.2,1.04,0.431,1.101,1.101
				c0.649,8.89,3.63,15.449,6.609,22.01c2.921,10.58-1.75,18.78-1.1,27.51c-0.37,0-0.74,0-1.11,0c-1.06-2.6-1.93-5.399-6.6-4.399
				c0.34-2.591,3.82-2.051,3.3-5.5c-22.66-0.641-47.68-1.381-72.18-1.101l-0.021-1.649c24.011-0.25,47.9-0.61,71.101-1.65
				c0-0.37,0-0.74,0-1.1c0-1.841,0-3.671,0-5.511c-17.43-2.37-44.87-0.609-60.521-1.1c-2.279,0.66-7.229-1.36-7.699,1.1
				c-23.12,0.74-49.16-1.46-70.431,1.101c-76.74-2.561-155.09,2.72-230-2.2c-0.17,0.22-0.35,0.439-0.54,0.649
				c-5.87,6.62-19.33,10.44-22.57,15.86c-4.88,1.09-11.26,1.09-13.2,5.5c5.01,1.08,10.35,4.11,15.43,7c6.3,3.601,12.19,7,16.48,6.21
				c14.52,0.21,29.35,0.11,44.19-0.01c31.36-0.23,62.73-0.48,91.17,2.21c12.31,0.15,25.57-0.63,36.31,1.1
				c45.56-0.659,93.8,1.36,137.56-1.1c5.55-1.42,12.94-0.99,17.601-3.3c7.39,0.05,13.29-1.391,19.81-2.2c8.81,0,17.61,0,26.41,0
				c0.109,2.82,4.1,1.76,5.51,3.3c0.01-2.649-0.52-6.56,1.54-5c0.15,0.26,0.37,0.47,0.66,0.601c10.04,14.42-5.7,28.46-12.11,39.609
				c-0.729,0-1.47,0-2.2,0c-0.81,2.771,3.7,4.94,7.561,6.891c1.29,0.659,2.5,1.29,3.42,1.909c-0.01,0-0.021,0-0.04,0.011
				c-10.02-0.19-20.66,4.58-27.45,1.1c7.11-16.01,26.13-20.09,29.72-39.62c-28.38-4.149-50.5,2.46-74.829,4.4
				c-43.04,1.92-93.391,1.71-136.46,0c-51.96-1.96-105.07-2.771-159.56-2.2c-0.82,1-0.04,4.42-1.11,7.7
				c-14.44-13.431-37.53-18.21-51.72-31.91c15.32-9.26,36.57-12.59,46.22-27.51c28.22,5.819,77.24,3.3,119.95,3.3
				c86.36,0,164.88-1.59,246.5-2.2c1.01-14.95-6.029-31.38-18.71-36.31c15.41-4.42,43.76-3.66,52.82,5.5
				c-0.67,8.26,1.84,21.72,1.11,29.71c15.479-0.29,26.409-5.141,42.909-4.4c4.99-2.1,0.74-7.92,4.4-9.91
				c3.55-1.58,9.24-1.04,14.31-1.1C568.83,127.093,569.74,127.984,571.599,127.954z M565.049,154.364
				c-0.53-5.71,1.181-13.66-1.1-17.61c-3.561-1.36-0.84,3.561-4.4,2.2C560.07,145.404,558.9,153.543,565.049,154.364z
				 M544.139,169.763c4.4,0,8.801,0,13.21,0c-0.439-9.83-3.949-16.59-5.51-25.31c-2.56,0-5.13,0-7.7,0
				C544.139,152.893,544.139,161.333,544.139,169.763z M540.839,169.763c-1.79-7.38-2.58-15.76-2.2-25.31
				c-3.109,0.92-6.79,1.28-9.909,2.2C532.4,154.723,530.379,168.484,540.839,169.763z M529.83,169.763
				c0.689-5.689-2.771-16.13-5.5-22.01c-2.93,0-5.87,0-8.8,0c-0.78,9.58,1.08,16.53,4.399,22.01
				C523.23,169.763,526.53,169.763,529.83,169.763z M513.33,174.164c0.26-7.32,0.29-22.7-6.6-26.41
				C508.44,157.043,507.98,168.513,513.33,174.164z"/>
			<path d="M569.639,180.463c-0.06,0.101-0.13,0.21-0.189,0.311c0-0.12-0.021-0.23-0.061-0.32
				C569.469,180.454,569.559,180.463,569.639,180.463z"/>
			<path d="M567.25,179.673c0.75,0.21,1.88,0.07,2.14,0.78C568.75,180.393,568.04,180.143,567.25,179.673z"/>
			<path d="M566.15,179.673c-14.78-1.149-40.271-3.64-51.721,2.2C523.549,174.353,553.75,176.624,566.15,179.673z"/>
			<path fill="#DEC224" d="M506.73,197.274c-4.181,7.779,1.989,12.54-1.11,19.81c0,0.73,0,1.47,0,2.2c-2.92,0.01-6.28-0.41-7.7,1.1
				c-8.43,0.74-11.87,6.48-20.91,6.61c-2.01-2.03-4.35-3.72-5.5-6.61c6.41-11.149,22.15-25.189,12.11-39.609
				c-0.24-0.25-0.46-0.45-0.66-0.601c-1.25-2.02,0.87-7.37-1.54-8.21c-0.65-8.729,4.021-16.93,1.1-27.51
				c2.351-8.561-1.609-17.44-6.609-22.01c-0.061-0.67-0.16-1.301-1.101-1.101c-1.779-2.62-3.949-4.85-5.5-7.7
				c6.591-8.97,26.16-1.229,30.811,5.5C498.509,144.433,504.179,170.414,506.73,197.274z"/>
			<path fill="#DEC224" d="M471.509,108.143c11.811,0.671,29.351,1.45,28.61,11c-4.65-6.729-24.22-14.47-30.811-5.5
				c1.551,2.851,3.721,5.08,5.5,7.7c-3.159-1.97-5.46-4.81-6.6-8.8C471.759,113.524,469.759,108.954,471.509,108.143z"/>
			<path d="M477.009,226.994c9.04-0.13,12.48-5.87,20.91-6.61c-3.43,3.2-14.41,4.641-14.3,7.71c-0.97,0.33-2.09,0.7-3.33,1.09
				c-0.92-0.619-2.13-1.25-3.42-1.909L477.009,226.994z"/>
			<path d="M482.959,180.173c0.2,0.15,0.42,0.351,0.66,0.601C483.33,180.643,483.11,180.433,482.959,180.173z"/>
			<path fill="#6CBE45" d="M481.419,171.963c2.41,0.84,0.29,6.19,1.54,8.21c-2.06-1.56-1.53,2.351-1.54,5
				c-1.41-1.54-5.4-0.479-5.51-3.3c0.81-1.03,2-1.67,3.3-2.2c-0.03-1.07-1.34-0.859-2.2-1.1c-0.939-4.391,6.8-2.99,3.3-6.61
				C480.679,171.963,481.049,171.963,481.419,171.963z"/>
			<path fill="#6CBE45" d="M480.309,171.963c3.5,3.62-4.239,2.22-3.3,6.61c0.86,0.24,2.17,0.029,2.2,1.1
				c-1.3,0.53-2.49,1.17-3.3,2.2c-8.8,0-17.601,0-26.41,0c-17.24-1.84-42.18-1.84-59.42,0c-20.18,0-40.35,0-60.53,0
				c-19.439,0-38.88,0-58.32,0c-37.81-2.69-83.22,1.16-124.19,1.53c-15.17,0.14-29.74-0.2-43.08-1.53
				c-5.53-0.55-11.88-1.271-16.83-4.23c-2.59-1.55-4.79-3.71-6.28-6.779c1.64-1.3,4.92-0.95,4.4-4.4
				c9.21-3.24,15.87-9.02,21.47-15.86c0.19-0.21,0.37-0.43,0.54-0.649c74.91,4.92,153.26-0.36,230,2.2c23.471,0,46.95,0,70.431,0
				c13.569,0,27.14,0,40.71,0c10.109-2.971,22.01-0.641,27.51,4.41c0,0.359,0,0.729,0,1.1c-41.16-0.08-82.37-0.21-121.05,2.2
				c-77.69,5.7-160.291,10.68-242.09,8.8c73.01,12.68,156.38-2.86,220.08-2.2c42.761-4.21,98.891-6.729,143.061-2.2
				c-0.97,0.32-4.82,2.98-2.2,3.301C478.379,166.564,479.25,169.364,480.309,171.963z"/>
			<path d="M480.309,229.194c-0.02,0-0.04,0-0.06,0c0.02-0.011,0.03-0.011,0.04-0.011S480.299,229.194,480.309,229.194z"/>
			<path d="M452.799,230.293c6.79,3.48,17.431-1.29,27.45-1.1C471.62,231.853,457.69,235.034,452.799,230.293z"/>
			<path fill="#6CBE45" d="M477.009,162.064c0.521,3.449-2.96,2.909-3.3,5.5c-2.62-0.32,1.23-2.98,2.2-3.301
				c-44.17-4.529-100.3-2.01-143.061,2.2c21.181-3.8,46.29-5.21,71.98-5.5C429.33,160.683,454.349,161.423,477.009,162.064z"/>
			<path d="M477.009,226.994l-0.14,0.28c-3.86-1.95-8.37-4.12-7.561-6.891c0.73,0,1.471,0,2.2,0
				C472.66,223.274,475,224.963,477.009,226.994z"/>
			<path fill="#6CBE45" d="M354.86,159.864c38.68-2.41,79.89-2.28,121.05-2.2c-23.2,1.04-47.09,1.4-71.101,1.65
				C388.15,159.484,371.429,159.603,354.86,159.864z"/>
			<path fill="#6CBE45" d="M429.69,184.074c-4.03-2.37,6.159,0.41,5.51-2.2c-15.04,0-30.08,0-45.12,0c17.24-1.84,42.18-1.84,59.42,0
				C442.98,182.683,437.08,184.124,429.69,184.074z"/>
			<path d="M423.089,98.234c6.07-4.4,14.62-0.41,11.01,7.71c-4.59,0.18-9.189,0.38-11.01-2.21
				C423.089,101.904,423.089,100.074,423.089,98.234z"/>
			<path d="M399.98,104.843c2.68,2.82,12.3-1.3,12.109,4.4c-2.109,6.78-11.359,1.25-16.51,1.1c-0.3-0.76-0.7-1.41-1.22-1.939
				c-0.931-1.641-1.71-3.45-2.351-5.42c-1.25-20.98,0.53-39.71,0.271-61.97c3.33-8.21-3.561-14.03,0-22.01
				C408.879,32.043,392.559,79.603,399.98,104.843z"/>
			<path d="M404.809,159.314l0.021,1.649c-25.69,0.29-50.8,1.7-71.98,5.5c-63.7-0.66-147.07,14.88-220.08,2.2
				c81.8,1.88,164.4-3.1,242.09-8.8C371.429,159.603,388.15,159.484,404.809,159.314z"/>
			<path d="M395.58,110.343c-0.43-0.609-0.84-1.26-1.22-1.939C394.879,108.933,395.28,109.583,395.58,110.343z"/>
			<path d="M394.36,108.404c-0.561-0.59-1.25-1.04-2.08-1.36c-0.11-1.36-0.2-2.72-0.271-4.06
				C392.65,104.954,393.429,106.763,394.36,108.404z"/>
			<path d="M392.28,41.014c0.26,22.26-1.521,40.99-0.271,61.97C386.429,86.164,390.25,58.614,392.28,41.014z"/>
			<path d="M366.969,76.223c-1.47,10.13-2.149,21-2.2,29.721c-5.22,1.18-5.26-2.811-7.71-4.41c-4.67,8.56-24.479,6.39-24.21-5.5
				c-1.6-20.57,12.25-22.76,8.811,1.1c0,1.101,0,2.2,0,3.3c17.859,1.11,11.67-21.72,19.81-27.51
				C363.41,73.914,364.679,75.583,366.969,76.223z"/>
			<path d="M371.37,35.514c-14.86,4.36-38.45-9.11-53.92-4.4c-7.23,8.18-14.54,16.27-16.51,29.71c6.78,6.55,23.21-3.36,28.61,4.399
				c-3.56,7.44-17.319,4.681-27.51,5.5c0.05,19.04,18.78,24.761,13.21,42.92c-7.27,0.5-5.69-5.949-8.81-14.31
				c-3.891-10.46-12.42-14.45-11-28.61c-7.22,0.37-19.27,0.54-16.51-5.5c0.76-4.75,9.99-1.01,14.31-2.199
				c2.82-10.23,3.3-18.721,7.7-25.311c14.03-20.98,32.541-12.17,55.02-7.71C361.32,31.074,369.589,26.883,371.37,35.514z"/>
			<path d="M332.849,96.034c-5.149-26.36,16.7-19.99,8.811,1.1C345.099,73.274,331.25,75.463,332.849,96.034z"/>
			<path fill="#6CBE45" d="M271.229,181.874c19.44,0,38.88,0,58.32,0C312.679,183.704,288.109,183.704,271.229,181.874z"/>
			<path d="M255.819,85.034c7.87-0.62,32.25-10.92,30.82,5.5c-6.56-3.13-14.79-4.5-20.91,0c-1.7,10.17,0.83,17.46-1.1,25.31
				c-3.46-0.58-6.14-1.93-8.81-3.3c-0.23-8.21,0.98-17.86-2.2-23.11C254.1,87.704,257.08,88.494,255.819,85.034z"/>
			<path d="M248.12,81.734c6.37,15.17-26.46,25.01-36.31,16.5c-1.93,2.109-2.34,5.739-3.31,8.81c6.59,4.25,24.26,2.86,29.72-1.1
				c2.77,3.25,3.09,3.229,2.2,8.8c-13.35,1.92-32.86,2.609-39.62-5.5C193.209,91.234,241.819,66.734,248.12,81.734z M240.419,86.133
				c-8.12-6.47-17.5,4.38-23.11,7.7C226.569,96.713,234.859,90.484,240.419,86.133z"/>
			<path d="M178.79,72.923c1.95,0.99,3.21,2.66,5.5,3.3c-4.21,14.13-5.78,30.9-13.2,41.82c-5.52,0.38-5.4-4.87-9.9-5.5
				c-3.99,2.01-6.59,4.39-6.61,7.7c-20.89-0.01-19.13-22.68-25.31-37.41c-0.18-1.49,5.6-2.2,2.2-3.3
				c10,1.74,8.19,24.819,15.41,33.01c9.63-0.729,9.06-12.13,7.7-20.91c2.59,0.021,3.24-1.899,6.61-1.1
				c3.34,3.63,2.38,11.55,4.4,16.51C173.93,99.614,172.43,82.333,178.79,72.923z"/>
			<path d="M109.459,85.034c11.53,35.39-45.8,35.649-42.91,12.1c0.43-3.51,17.94-22.63,28.61-20.91
				C101.839,77.303,102.33,84.124,109.459,85.034z M74.25,101.534c9.02,10.96,31.2,4.67,28.61-12.101
				C88.74,77.194,79.75,93.213,74.25,101.534z"/>
			<path d="M21.43,75.124c20.98-17.88,55.64,5.89,37.41,24.21c-5.29,5.33-14.95,22.97-25.31,16.51
				c0.06,14.3,12.63,35.95,9.91,49.521c-10.73-4.561-10.25-23.84-14.31-37.41c-5.76-19.28-15.94-38.46-15.4-58.33
				C17.509,70.244,19.319,72.833,21.43,75.124z M57.74,89.433c1.07-16.229-27.89-16.67-34.11-5.5c1.38,8.521,5.17,14.641,5.5,24.21
				C36.839,115.683,57.24,97.093,57.74,89.433z"/>
		</g>
		<g>
		</g>
	</g>
</g>
</svg>
